<svg xmlns="http://www.w3.org/2000/svg" xmlns:xlink="http://www.w3.org/1999/xlink" xmlns:cc="http://creativecommons.org/ns#" xmlns:dc="http://purl.org/dc/elements/1.1/" xmlns:inkscape="http://www.inkscape.org/namespaces/inkscape" xmlns:rdf="http://www.w3.org/1999/02/22-rdf-syntax-ns#" xmlns:sodipodi="http://sodipodi.sourceforge.net/DTD/sodipodi-0.dtd" xmlns:svg="http://www.w3.org/2000/svg"><symbol id="icn-arrow" viewBox="0 0 24 24">
<path d="M19 9L12 16L5 9" stroke="currentColor" stroke-width="2" stroke-linecap="round" stroke-linejoin="round"/>
</symbol><symbol id="icn-close"><g id="layer1" transform="translate(0,-1036.3622)"><path d="m 2,1050.3622 12,-12" id="path2985" style="fill:none;stroke:#000000;stroke-width:2;stroke-linecap:butt;stroke-linejoin:miter;stroke-miterlimit:4;stroke-opacity:1;stroke-dasharray:none"/><path d="m 2,1038.3622 12,12" id="path2985-1" style="fill:none;stroke:#000000;stroke-width:2;stroke-linecap:butt;stroke-linejoin:miter;stroke-miterlimit:4;stroke-opacity:1;stroke-dasharray:none"/></g></symbol><symbol id="icn-lock" viewBox="0 0 12 16">
<path d="M10.2094 5.72803H9.48022V4.26953C9.48022 2.25681 7.84671 0.623291 5.83398 0.623291C3.82126 0.623291 2.18775 2.25681 2.18775 4.26953V5.72803H1.4585C0.656323 5.72803 0 6.38435 0 7.18652V14.479C0 15.2812 0.656323 15.9375 1.4585 15.9375H10.2094C11.0116 15.9375 11.6679 15.2812 11.6679 14.479V7.18652C11.6679 6.38435 11.0116 5.72803 10.2094 5.72803ZM5.83398 12.2913C5.03181 12.2913 4.37549 11.6349 4.37549 10.8328C4.37549 10.0306 5.03181 9.37426 5.83398 9.37426C6.63616 9.37426 7.29248 10.0306 7.29248 10.8328C7.29248 11.6349 6.63616 12.2913 5.83398 12.2913ZM3.64624 5.72803V4.26953C3.64624 3.05898 4.62343 2.08179 5.83398 2.08179C7.04454 2.08179 8.02173 3.05898 8.02173 4.26953V5.72803H3.64624Z" fill="currentColor"/>
</symbol><symbol id="icn-visible" viewBox="0 0 18 18">
  <path d="M9.16985 3.56812C5.71551 3.56812 2.76551 5.71671 1.57031 8.74961C2.76551 11.7825 5.71551 13.9311 9.16985 13.9311C12.6241 13.9311 15.5742 11.7825 16.7694 8.74961C15.5742 5.71671 12.6241 3.56812 9.16985 3.56812ZM9.16985 12.204C7.26306 12.204 5.71551 10.6564 5.71551 8.74961C5.71551 6.84282 7.26306 5.29528 9.16985 5.29528C11.0766 5.29528 12.6241 6.84282 12.6241 8.74961C12.6241 10.6564 11.0766 12.204 9.16985 12.204ZM9.16985 6.67701C8.02301 6.67701 7.09725 7.60277 7.09725 8.74961C7.09725 9.89646 8.02301 10.8222 9.16985 10.8222C10.3167 10.8222 11.2425 9.89646 11.2425 8.74961C11.2425 7.60277 10.3167 6.67701 9.16985 6.67701Z" fill="currentColor"/>
</symbol></svg>